<mxfile host="app.diagrams.net" modified="2023-08-05T09:04:57.519Z" agent="Mozilla/5.0 (Windows NT 10.0; Win64; x64) AppleWebKit/537.36 (KHTML, like Gecko) Chrome/115.0.0.0 Safari/537.36 Edg/115.0.1901.188" version="21.6.6" etag="1AhRkmxJLT1apsSShSB0" type="github">
  <diagram name="Page-1" id="vaDtTViKuQnevan3suIC">
    <mxGraphModel>
      <root>
        <mxCell id="0" />
        <mxCell id="1" parent="0" />
      </root>
    </mxGraphModel>
  </diagram>
</mxfile>
